<mxfile host="app.diagrams.net" modified="2021-12-17T02:31:53.387Z" agent="5.0 (Windows NT 10.0; Win64; x64) AppleWebKit/537.36 (KHTML, like Gecko) Chrome/96.0.4664.45 Safari/537.36 OPR/82.0.4227.25" etag="rkGmRyu-yooXXulyofEA" version="15.9.6" type="github">
  <diagram id="C5RBs43oDa-KdzZeNtuy" name="Page-1">
    <mxGraphModel dx="1621" dy="798" grid="1" gridSize="10" guides="1" tooltips="1" connect="1" arrows="1" fold="1" page="1" pageScale="1" pageWidth="827" pageHeight="1169" math="0" shadow="0">
      <root>
        <mxCell id="WIyWlLk6GJQsqaUBKTNV-0" />
        <mxCell id="WIyWlLk6GJQsqaUBKTNV-1" parent="WIyWlLk6GJQsqaUBKTNV-0" />
        <mxCell id="rA98-xqqZp7VcC_hJ9K6-14" value="Abriu" style="edgeStyle=orthogonalEdgeStyle;rounded=0;orthogonalLoop=1;jettySize=auto;html=1;entryX=1;entryY=0.5;entryDx=0;entryDy=0;" parent="WIyWlLk6GJQsqaUBKTNV-1" source="rA98-xqqZp7VcC_hJ9K6-0" target="rA98-xqqZp7VcC_hJ9K6-2" edge="1">
          <mxGeometry relative="1" as="geometry" />
        </mxCell>
        <mxCell id="rA98-xqqZp7VcC_hJ9K6-37" value="Abriu" style="edgeStyle=orthogonalEdgeStyle;rounded=0;orthogonalLoop=1;jettySize=auto;html=1;exitX=0.5;exitY=1;exitDx=0;exitDy=0;entryX=0.5;entryY=0;entryDx=0;entryDy=0;" parent="WIyWlLk6GJQsqaUBKTNV-1" source="rA98-xqqZp7VcC_hJ9K6-0" target="rA98-xqqZp7VcC_hJ9K6-36" edge="1">
          <mxGeometry relative="1" as="geometry" />
        </mxCell>
        <mxCell id="rA98-xqqZp7VcC_hJ9K6-0" value="Abrir Excel" style="rounded=0;whiteSpace=wrap;html=1;" parent="WIyWlLk6GJQsqaUBKTNV-1" vertex="1">
          <mxGeometry x="707" y="310" width="120" height="60" as="geometry" />
        </mxCell>
        <mxCell id="rA98-xqqZp7VcC_hJ9K6-9" style="edgeStyle=orthogonalEdgeStyle;rounded=0;orthogonalLoop=1;jettySize=auto;html=1;exitX=1;exitY=0.5;exitDx=0;exitDy=0;entryX=0;entryY=0.5;entryDx=0;entryDy=0;" parent="WIyWlLk6GJQsqaUBKTNV-1" source="rA98-xqqZp7VcC_hJ9K6-77" target="rA98-xqqZp7VcC_hJ9K6-4" edge="1">
          <mxGeometry relative="1" as="geometry">
            <mxPoint x="170" y="175" as="sourcePoint" />
          </mxGeometry>
        </mxCell>
        <mxCell id="rA98-xqqZp7VcC_hJ9K6-34" style="edgeStyle=orthogonalEdgeStyle;rounded=0;orthogonalLoop=1;jettySize=auto;html=1;exitX=0;exitY=0.5;exitDx=0;exitDy=0;entryX=1;entryY=0.5;entryDx=0;entryDy=0;" parent="WIyWlLk6GJQsqaUBKTNV-1" source="rA98-xqqZp7VcC_hJ9K6-2" target="rA98-xqqZp7VcC_hJ9K6-33" edge="1">
          <mxGeometry relative="1" as="geometry" />
        </mxCell>
        <mxCell id="rA98-xqqZp7VcC_hJ9K6-40" value="Leu" style="edgeStyle=orthogonalEdgeStyle;rounded=0;orthogonalLoop=1;jettySize=auto;html=1;exitX=0.5;exitY=1;exitDx=0;exitDy=0;entryX=0.5;entryY=0;entryDx=0;entryDy=0;entryPerimeter=0;" parent="WIyWlLk6GJQsqaUBKTNV-1" source="rA98-xqqZp7VcC_hJ9K6-2" target="rA98-xqqZp7VcC_hJ9K6-62" edge="1">
          <mxGeometry relative="1" as="geometry">
            <mxPoint x="590" y="420" as="targetPoint" />
          </mxGeometry>
        </mxCell>
        <mxCell id="rA98-xqqZp7VcC_hJ9K6-2" value="Ler Excel" style="rounded=0;whiteSpace=wrap;html=1;" parent="WIyWlLk6GJQsqaUBKTNV-1" vertex="1">
          <mxGeometry x="530" y="310" width="120" height="60" as="geometry" />
        </mxCell>
        <mxCell id="rA98-xqqZp7VcC_hJ9K6-11" style="edgeStyle=orthogonalEdgeStyle;rounded=0;orthogonalLoop=1;jettySize=auto;html=1;exitX=1;exitY=0.5;exitDx=0;exitDy=0;entryX=0;entryY=0.5;entryDx=0;entryDy=0;" parent="WIyWlLk6GJQsqaUBKTNV-1" source="rA98-xqqZp7VcC_hJ9K6-4" target="rA98-xqqZp7VcC_hJ9K6-10" edge="1">
          <mxGeometry relative="1" as="geometry" />
        </mxCell>
        <mxCell id="rA98-xqqZp7VcC_hJ9K6-4" value="Verifica o diretório" style="rounded=0;whiteSpace=wrap;html=1;" parent="WIyWlLk6GJQsqaUBKTNV-1" vertex="1">
          <mxGeometry x="314" y="115" width="120" height="60" as="geometry" />
        </mxCell>
        <mxCell id="rA98-xqqZp7VcC_hJ9K6-12" value="Sim" style="edgeStyle=orthogonalEdgeStyle;rounded=0;orthogonalLoop=1;jettySize=auto;html=1;exitX=1;exitY=0.5;exitDx=0;exitDy=0;entryX=0;entryY=0.5;entryDx=0;entryDy=0;" parent="WIyWlLk6GJQsqaUBKTNV-1" source="rA98-xqqZp7VcC_hJ9K6-10" target="rA98-xqqZp7VcC_hJ9K6-46" edge="1">
          <mxGeometry relative="1" as="geometry">
            <mxPoint x="767" y="300" as="targetPoint" />
          </mxGeometry>
        </mxCell>
        <mxCell id="rA98-xqqZp7VcC_hJ9K6-80" value="Não" style="edgeStyle=orthogonalEdgeStyle;rounded=0;orthogonalLoop=1;jettySize=auto;html=1;exitX=0.5;exitY=0;exitDx=0;exitDy=0;entryX=0.5;entryY=1;entryDx=0;entryDy=0;" parent="WIyWlLk6GJQsqaUBKTNV-1" source="rA98-xqqZp7VcC_hJ9K6-10" target="rA98-xqqZp7VcC_hJ9K6-15" edge="1">
          <mxGeometry relative="1" as="geometry" />
        </mxCell>
        <mxCell id="rA98-xqqZp7VcC_hJ9K6-10" value="Diretório Existe?" style="rounded=0;whiteSpace=wrap;html=1;" parent="WIyWlLk6GJQsqaUBKTNV-1" vertex="1">
          <mxGeometry x="500" y="115" width="120" height="60" as="geometry" />
        </mxCell>
        <mxCell id="rA98-xqqZp7VcC_hJ9K6-85" style="edgeStyle=orthogonalEdgeStyle;rounded=0;orthogonalLoop=1;jettySize=auto;html=1;exitX=1;exitY=0.5;exitDx=0;exitDy=0;entryX=0;entryY=0.5;entryDx=0;entryDy=0;" parent="WIyWlLk6GJQsqaUBKTNV-1" source="rA98-xqqZp7VcC_hJ9K6-15" target="rA98-xqqZp7VcC_hJ9K6-17" edge="1">
          <mxGeometry relative="1" as="geometry" />
        </mxCell>
        <mxCell id="rA98-xqqZp7VcC_hJ9K6-15" value="Informa no Grid" style="rounded=0;whiteSpace=wrap;html=1;" parent="WIyWlLk6GJQsqaUBKTNV-1" vertex="1">
          <mxGeometry x="500" y="10" width="120" height="60" as="geometry" />
        </mxCell>
        <mxCell id="rA98-xqqZp7VcC_hJ9K6-17" value="Robô Finaliza" style="rounded=0;whiteSpace=wrap;html=1;" parent="WIyWlLk6GJQsqaUBKTNV-1" vertex="1">
          <mxGeometry x="707" y="10" width="120" height="60" as="geometry" />
        </mxCell>
        <mxCell id="rA98-xqqZp7VcC_hJ9K6-31" style="edgeStyle=orthogonalEdgeStyle;rounded=0;orthogonalLoop=1;jettySize=auto;html=1;exitX=1;exitY=0.5;exitDx=0;exitDy=0;entryX=0;entryY=0.5;entryDx=0;entryDy=0;" parent="WIyWlLk6GJQsqaUBKTNV-1" source="rA98-xqqZp7VcC_hJ9K6-75" target="rA98-xqqZp7VcC_hJ9K6-4" edge="1">
          <mxGeometry relative="1" as="geometry">
            <mxPoint x="170" y="105" as="sourcePoint" />
          </mxGeometry>
        </mxCell>
        <mxCell id="rA98-xqqZp7VcC_hJ9K6-32" style="edgeStyle=orthogonalEdgeStyle;rounded=0;orthogonalLoop=1;jettySize=auto;html=1;exitX=1;exitY=0.5;exitDx=0;exitDy=0;entryX=0;entryY=0.5;entryDx=0;entryDy=0;" parent="WIyWlLk6GJQsqaUBKTNV-1" source="rA98-xqqZp7VcC_hJ9K6-73" target="rA98-xqqZp7VcC_hJ9K6-4" edge="1">
          <mxGeometry relative="1" as="geometry">
            <mxPoint x="170" y="35" as="sourcePoint" />
            <mxPoint x="500" y="40" as="targetPoint" />
          </mxGeometry>
        </mxCell>
        <mxCell id="rA98-xqqZp7VcC_hJ9K6-50" value="confirmacao == 1" style="edgeStyle=orthogonalEdgeStyle;rounded=0;orthogonalLoop=1;jettySize=auto;html=1;exitX=0;exitY=0.5;exitDx=0;exitDy=0;entryX=1;entryY=0.5;entryDx=0;entryDy=0;" parent="WIyWlLk6GJQsqaUBKTNV-1" source="rA98-xqqZp7VcC_hJ9K6-33" target="rA98-xqqZp7VcC_hJ9K6-49" edge="1">
          <mxGeometry relative="1" as="geometry" />
        </mxCell>
        <mxCell id="rA98-xqqZp7VcC_hJ9K6-101" value="confirmacao == 0" style="edgeStyle=orthogonalEdgeStyle;rounded=0;orthogonalLoop=1;jettySize=auto;html=1;exitX=0.5;exitY=0;exitDx=0;exitDy=0;entryX=0.5;entryY=1;entryDx=0;entryDy=0;" parent="WIyWlLk6GJQsqaUBKTNV-1" source="rA98-xqqZp7VcC_hJ9K6-33" target="rA98-xqqZp7VcC_hJ9K6-100" edge="1">
          <mxGeometry relative="1" as="geometry" />
        </mxCell>
        <mxCell id="rA98-xqqZp7VcC_hJ9K6-33" value="Fecha o Excel" style="rounded=0;whiteSpace=wrap;html=1;" parent="WIyWlLk6GJQsqaUBKTNV-1" vertex="1">
          <mxGeometry x="354" y="310" width="120" height="60" as="geometry" />
        </mxCell>
        <mxCell id="rA98-xqqZp7VcC_hJ9K6-36" value="Informa no Grid" style="rounded=0;whiteSpace=wrap;html=1;" parent="WIyWlLk6GJQsqaUBKTNV-1" vertex="1">
          <mxGeometry x="707" y="410" width="120" height="60" as="geometry" />
        </mxCell>
        <mxCell id="rA98-xqqZp7VcC_hJ9K6-54" style="edgeStyle=orthogonalEdgeStyle;rounded=0;orthogonalLoop=1;jettySize=auto;html=1;exitX=0.5;exitY=1;exitDx=0;exitDy=0;entryX=0;entryY=0.5;entryDx=0;entryDy=0;" parent="WIyWlLk6GJQsqaUBKTNV-1" source="rA98-xqqZp7VcC_hJ9K6-41" target="rA98-xqqZp7VcC_hJ9K6-43" edge="1">
          <mxGeometry relative="1" as="geometry">
            <Array as="points">
              <mxPoint x="400" y="620" />
              <mxPoint x="400" y="670" />
            </Array>
          </mxGeometry>
        </mxCell>
        <mxCell id="rA98-xqqZp7VcC_hJ9K6-55" value="Acabou" style="edgeStyle=orthogonalEdgeStyle;rounded=0;orthogonalLoop=1;jettySize=auto;html=1;exitX=0.5;exitY=1;exitDx=0;exitDy=0;entryX=0.5;entryY=0;entryDx=0;entryDy=0;" parent="WIyWlLk6GJQsqaUBKTNV-1" source="rA98-xqqZp7VcC_hJ9K6-41" target="rA98-xqqZp7VcC_hJ9K6-102" edge="1">
          <mxGeometry relative="1" as="geometry">
            <mxPoint x="370" y="740" as="targetPoint" />
          </mxGeometry>
        </mxCell>
        <mxCell id="rA98-xqqZp7VcC_hJ9K6-97" value="Acabou" style="edgeStyle=orthogonalEdgeStyle;rounded=0;orthogonalLoop=1;jettySize=auto;html=1;exitX=0;exitY=0.5;exitDx=0;exitDy=0;entryX=0.5;entryY=1;entryDx=0;entryDy=0;" parent="WIyWlLk6GJQsqaUBKTNV-1" source="rA98-xqqZp7VcC_hJ9K6-41" target="rA98-xqqZp7VcC_hJ9K6-93" edge="1">
          <mxGeometry relative="1" as="geometry" />
        </mxCell>
        <mxCell id="rA98-xqqZp7VcC_hJ9K6-98" value="Acabou" style="edgeStyle=orthogonalEdgeStyle;rounded=0;orthogonalLoop=1;jettySize=auto;html=1;exitX=0;exitY=0.5;exitDx=0;exitDy=0;entryX=0.5;entryY=0;entryDx=0;entryDy=0;" parent="WIyWlLk6GJQsqaUBKTNV-1" source="rA98-xqqZp7VcC_hJ9K6-41" target="rA98-xqqZp7VcC_hJ9K6-94" edge="1">
          <mxGeometry relative="1" as="geometry" />
        </mxCell>
        <mxCell id="rA98-xqqZp7VcC_hJ9K6-41" value="Varrer Excel" style="rounded=0;whiteSpace=wrap;html=1;" parent="WIyWlLk6GJQsqaUBKTNV-1" vertex="1">
          <mxGeometry x="310" y="560" width="120" height="60" as="geometry" />
        </mxCell>
        <mxCell id="rA98-xqqZp7VcC_hJ9K6-44" value="Acabou" style="edgeStyle=orthogonalEdgeStyle;rounded=0;orthogonalLoop=1;jettySize=auto;html=1;exitX=0.5;exitY=0;exitDx=0;exitDy=0;entryX=1;entryY=0.5;entryDx=0;entryDy=0;" parent="WIyWlLk6GJQsqaUBKTNV-1" source="rA98-xqqZp7VcC_hJ9K6-43" target="rA98-xqqZp7VcC_hJ9K6-41" edge="1">
          <mxGeometry relative="1" as="geometry" />
        </mxCell>
        <mxCell id="rA98-xqqZp7VcC_hJ9K6-57" style="edgeStyle=orthogonalEdgeStyle;rounded=0;orthogonalLoop=1;jettySize=auto;html=1;exitX=0.5;exitY=1;exitDx=0;exitDy=0;entryX=0;entryY=0.5;entryDx=0;entryDy=0;" parent="WIyWlLk6GJQsqaUBKTNV-1" source="rA98-xqqZp7VcC_hJ9K6-43" target="rA98-xqqZp7VcC_hJ9K6-56" edge="1">
          <mxGeometry relative="1" as="geometry" />
        </mxCell>
        <mxCell id="rA98-xqqZp7VcC_hJ9K6-43" value="Varrer Lista" style="rounded=0;whiteSpace=wrap;html=1;" parent="WIyWlLk6GJQsqaUBKTNV-1" vertex="1">
          <mxGeometry x="480" y="640" width="120" height="60" as="geometry" />
        </mxCell>
        <mxCell id="rA98-xqqZp7VcC_hJ9K6-47" style="edgeStyle=orthogonalEdgeStyle;rounded=0;orthogonalLoop=1;jettySize=auto;html=1;exitX=0.5;exitY=1;exitDx=0;exitDy=0;entryX=0.5;entryY=0;entryDx=0;entryDy=0;" parent="WIyWlLk6GJQsqaUBKTNV-1" source="rA98-xqqZp7VcC_hJ9K6-46" target="rA98-xqqZp7VcC_hJ9K6-0" edge="1">
          <mxGeometry relative="1" as="geometry" />
        </mxCell>
        <mxCell id="rA98-xqqZp7VcC_hJ9K6-46" value="Chama Rotina&lt;br&gt;1 Etapa" style="rounded=0;whiteSpace=wrap;html=1;" parent="WIyWlLk6GJQsqaUBKTNV-1" vertex="1">
          <mxGeometry x="707" y="115" width="120" height="60" as="geometry" />
        </mxCell>
        <mxCell id="rA98-xqqZp7VcC_hJ9K6-53" style="edgeStyle=orthogonalEdgeStyle;rounded=0;orthogonalLoop=1;jettySize=auto;html=1;entryX=0.5;entryY=0;entryDx=0;entryDy=0;exitX=0.5;exitY=1;exitDx=0;exitDy=0;" parent="WIyWlLk6GJQsqaUBKTNV-1" source="rA98-xqqZp7VcC_hJ9K6-49" target="rA98-xqqZp7VcC_hJ9K6-52" edge="1">
          <mxGeometry relative="1" as="geometry">
            <mxPoint x="170" y="390" as="sourcePoint" />
          </mxGeometry>
        </mxCell>
        <mxCell id="rA98-xqqZp7VcC_hJ9K6-49" value="Chama Rotina&lt;br&gt;2 Etapa" style="rounded=0;whiteSpace=wrap;html=1;" parent="WIyWlLk6GJQsqaUBKTNV-1" vertex="1">
          <mxGeometry x="110" y="310" width="120" height="60" as="geometry" />
        </mxCell>
        <mxCell id="rA98-xqqZp7VcC_hJ9K6-67" style="edgeStyle=orthogonalEdgeStyle;rounded=0;orthogonalLoop=1;jettySize=auto;html=1;exitX=1;exitY=0.5;exitDx=0;exitDy=0;entryX=0;entryY=0.5;entryDx=0;entryDy=0;" parent="WIyWlLk6GJQsqaUBKTNV-1" source="rA98-xqqZp7VcC_hJ9K6-52" target="rA98-xqqZp7VcC_hJ9K6-68" edge="1">
          <mxGeometry relative="1" as="geometry">
            <mxPoint x="230" y="460" as="targetPoint" />
          </mxGeometry>
        </mxCell>
        <mxCell id="rA98-xqqZp7VcC_hJ9K6-52" value="Código Livre&lt;br&gt;Dicionário com as letras do alfabeto&lt;br&gt;A - Z" style="rounded=0;whiteSpace=wrap;html=1;" parent="WIyWlLk6GJQsqaUBKTNV-1" vertex="1">
          <mxGeometry x="110" y="420" width="120" height="60" as="geometry" />
        </mxCell>
        <mxCell id="rA98-xqqZp7VcC_hJ9K6-59" style="edgeStyle=orthogonalEdgeStyle;rounded=0;orthogonalLoop=1;jettySize=auto;html=1;exitX=1;exitY=0.5;exitDx=0;exitDy=0;entryX=0.5;entryY=1;entryDx=0;entryDy=0;" parent="WIyWlLk6GJQsqaUBKTNV-1" source="rA98-xqqZp7VcC_hJ9K6-56" target="rA98-xqqZp7VcC_hJ9K6-58" edge="1">
          <mxGeometry relative="1" as="geometry" />
        </mxCell>
        <mxCell id="rA98-xqqZp7VcC_hJ9K6-56" value="Coleta os números" style="rounded=0;whiteSpace=wrap;html=1;" parent="WIyWlLk6GJQsqaUBKTNV-1" vertex="1">
          <mxGeometry x="580" y="730" width="120" height="60" as="geometry" />
        </mxCell>
        <mxCell id="rA98-xqqZp7VcC_hJ9K6-60" style="edgeStyle=orthogonalEdgeStyle;rounded=0;orthogonalLoop=1;jettySize=auto;html=1;exitX=0;exitY=0.5;exitDx=0;exitDy=0;entryX=1;entryY=0.5;entryDx=0;entryDy=0;" parent="WIyWlLk6GJQsqaUBKTNV-1" source="rA98-xqqZp7VcC_hJ9K6-58" target="rA98-xqqZp7VcC_hJ9K6-43" edge="1">
          <mxGeometry relative="1" as="geometry" />
        </mxCell>
        <mxCell id="rA98-xqqZp7VcC_hJ9K6-58" value="Manipula os dados do novo Excel" style="rounded=0;whiteSpace=wrap;html=1;" parent="WIyWlLk6GJQsqaUBKTNV-1" vertex="1">
          <mxGeometry x="680" y="640" width="120" height="60" as="geometry" />
        </mxCell>
        <mxCell id="rA98-xqqZp7VcC_hJ9K6-61" value="" style="shape=table;startSize=0;container=1;collapsible=0;childLayout=tableLayout;" parent="WIyWlLk6GJQsqaUBKTNV-1" vertex="1">
          <mxGeometry x="450" y="490" width="280" height="60" as="geometry" />
        </mxCell>
        <mxCell id="rA98-xqqZp7VcC_hJ9K6-62" value="" style="shape=partialRectangle;collapsible=0;dropTarget=0;pointerEvents=0;fillColor=none;top=0;left=0;bottom=0;right=0;points=[[0,0.5],[1,0.5]];portConstraint=eastwest;" parent="rA98-xqqZp7VcC_hJ9K6-61" vertex="1">
          <mxGeometry width="280" height="60" as="geometry" />
        </mxCell>
        <mxCell id="rA98-xqqZp7VcC_hJ9K6-63" value="confirmacao = 1" style="shape=partialRectangle;html=1;whiteSpace=wrap;connectable=0;overflow=hidden;fillColor=none;top=0;left=0;bottom=0;right=0;pointerEvents=1;" parent="rA98-xqqZp7VcC_hJ9K6-62" vertex="1">
          <mxGeometry width="92" height="60" as="geometry">
            <mxRectangle width="92" height="60" as="alternateBounds" />
          </mxGeometry>
        </mxCell>
        <mxCell id="rA98-xqqZp7VcC_hJ9K6-64" value="Informa na Log" style="shape=partialRectangle;html=1;whiteSpace=wrap;connectable=0;overflow=hidden;fillColor=none;top=0;left=0;bottom=0;right=0;pointerEvents=1;" parent="rA98-xqqZp7VcC_hJ9K6-62" vertex="1">
          <mxGeometry x="92" width="96" height="60" as="geometry">
            <mxRectangle width="96" height="60" as="alternateBounds" />
          </mxGeometry>
        </mxCell>
        <mxCell id="rA98-xqqZp7VcC_hJ9K6-65" value="Informa no Grid" style="shape=partialRectangle;html=1;whiteSpace=wrap;connectable=0;overflow=hidden;fillColor=none;top=0;left=0;bottom=0;right=0;pointerEvents=1;" parent="rA98-xqqZp7VcC_hJ9K6-62" vertex="1">
          <mxGeometry x="188" width="92" height="60" as="geometry">
            <mxRectangle width="92" height="60" as="alternateBounds" />
          </mxGeometry>
        </mxCell>
        <mxCell id="rA98-xqqZp7VcC_hJ9K6-71" style="edgeStyle=orthogonalEdgeStyle;rounded=0;orthogonalLoop=1;jettySize=auto;html=1;exitX=1;exitY=0.5;exitDx=0;exitDy=0;" parent="rA98-xqqZp7VcC_hJ9K6-61" source="rA98-xqqZp7VcC_hJ9K6-62" target="rA98-xqqZp7VcC_hJ9K6-62" edge="1">
          <mxGeometry relative="1" as="geometry" />
        </mxCell>
        <mxCell id="rA98-xqqZp7VcC_hJ9K6-69" style="edgeStyle=orthogonalEdgeStyle;rounded=0;orthogonalLoop=1;jettySize=auto;html=1;entryX=0.5;entryY=0;entryDx=0;entryDy=0;exitX=0.5;exitY=1;exitDx=0;exitDy=0;" parent="WIyWlLk6GJQsqaUBKTNV-1" source="rA98-xqqZp7VcC_hJ9K6-68" target="rA98-xqqZp7VcC_hJ9K6-41" edge="1">
          <mxGeometry relative="1" as="geometry">
            <mxPoint x="300" y="490" as="sourcePoint" />
          </mxGeometry>
        </mxCell>
        <mxCell id="rA98-xqqZp7VcC_hJ9K6-68" value="Cria novo Excel" style="rounded=0;whiteSpace=wrap;html=1;" parent="WIyWlLk6GJQsqaUBKTNV-1" vertex="1">
          <mxGeometry x="310" y="420" width="120" height="60" as="geometry" />
        </mxCell>
        <mxCell id="rA98-xqqZp7VcC_hJ9K6-72" value="" style="shape=table;startSize=0;container=1;collapsible=0;childLayout=tableLayout;" parent="WIyWlLk6GJQsqaUBKTNV-1" vertex="1">
          <mxGeometry width="170" height="290" as="geometry" />
        </mxCell>
        <mxCell id="rA98-xqqZp7VcC_hJ9K6-73" value="" style="shape=partialRectangle;collapsible=0;dropTarget=0;pointerEvents=0;fillColor=none;top=0;left=0;bottom=0;right=0;points=[[0,0.5],[1,0.5]];portConstraint=eastwest;" parent="rA98-xqqZp7VcC_hJ9K6-72" vertex="1">
          <mxGeometry width="170" height="97" as="geometry" />
        </mxCell>
        <mxCell id="rA98-xqqZp7VcC_hJ9K6-74" value="&lt;span style=&quot;font-family: &amp;#34;helvetica&amp;#34; ; text-align: justify&quot;&gt;Informar o diretório&amp;nbsp;do arquivo excel na variável -&amp;gt; diretorio&lt;/span&gt;" style="shape=partialRectangle;html=1;whiteSpace=wrap;connectable=0;overflow=hidden;fillColor=none;top=0;left=0;bottom=0;right=0;pointerEvents=1;" parent="rA98-xqqZp7VcC_hJ9K6-73" vertex="1">
          <mxGeometry width="170" height="97" as="geometry">
            <mxRectangle width="170" height="97" as="alternateBounds" />
          </mxGeometry>
        </mxCell>
        <mxCell id="rA98-xqqZp7VcC_hJ9K6-75" value="" style="shape=partialRectangle;collapsible=0;dropTarget=0;pointerEvents=0;fillColor=none;top=0;left=0;bottom=0;right=0;points=[[0,0.5],[1,0.5]];portConstraint=eastwest;" parent="rA98-xqqZp7VcC_hJ9K6-72" vertex="1">
          <mxGeometry y="97" width="170" height="96" as="geometry" />
        </mxCell>
        <mxCell id="rA98-xqqZp7VcC_hJ9K6-76" value="&#xa;&#xa;&lt;span style=&quot;color: rgb(0, 0, 0); font-family: helvetica; font-size: 12px; font-style: normal; font-weight: 400; letter-spacing: normal; text-align: justify; text-indent: 0px; text-transform: none; word-spacing: 0px; background-color: rgb(248, 249, 250); display: inline; float: none;&quot;&gt;Informa o nome do excel na variável -&amp;gt; nomeExcel&lt;/span&gt;&#xa;&#xa;" style="shape=partialRectangle;html=1;whiteSpace=wrap;connectable=0;overflow=hidden;fillColor=none;top=0;left=0;bottom=0;right=0;pointerEvents=1;" parent="rA98-xqqZp7VcC_hJ9K6-75" vertex="1">
          <mxGeometry width="170" height="96" as="geometry">
            <mxRectangle width="170" height="96" as="alternateBounds" />
          </mxGeometry>
        </mxCell>
        <mxCell id="rA98-xqqZp7VcC_hJ9K6-77" value="" style="shape=partialRectangle;collapsible=0;dropTarget=0;pointerEvents=0;fillColor=none;top=0;left=0;bottom=0;right=0;points=[[0,0.5],[1,0.5]];portConstraint=eastwest;" parent="rA98-xqqZp7VcC_hJ9K6-72" vertex="1">
          <mxGeometry y="193" width="170" height="97" as="geometry" />
        </mxCell>
        <mxCell id="rA98-xqqZp7VcC_hJ9K6-78" value="&#xa;&#xa;&lt;span style=&quot;color: rgb(0, 0, 0); font-family: helvetica; font-size: 12px; font-style: normal; font-weight: 400; letter-spacing: normal; text-align: center; text-indent: 0px; text-transform: none; word-spacing: 0px; background-color: rgb(248, 249, 250); display: inline; float: none;&quot;&gt;Grid Criado&lt;/span&gt;&#xa;&#xa;" style="shape=partialRectangle;html=1;whiteSpace=wrap;connectable=0;overflow=hidden;fillColor=none;top=0;left=0;bottom=0;right=0;pointerEvents=1;" parent="rA98-xqqZp7VcC_hJ9K6-77" vertex="1">
          <mxGeometry width="170" height="97" as="geometry">
            <mxRectangle width="170" height="97" as="alternateBounds" />
          </mxGeometry>
        </mxCell>
        <mxCell id="rA98-xqqZp7VcC_hJ9K6-93" value="Informa no Grid" style="rounded=0;whiteSpace=wrap;html=1;" parent="WIyWlLk6GJQsqaUBKTNV-1" vertex="1">
          <mxGeometry x="110" y="500" width="120" height="60" as="geometry" />
        </mxCell>
        <mxCell id="rA98-xqqZp7VcC_hJ9K6-94" value="Informa na Log" style="rounded=0;whiteSpace=wrap;html=1;" parent="WIyWlLk6GJQsqaUBKTNV-1" vertex="1">
          <mxGeometry x="110" y="620" width="120" height="60" as="geometry" />
        </mxCell>
        <mxCell id="rA98-xqqZp7VcC_hJ9K6-100" value="Informa no Grid" style="rounded=0;whiteSpace=wrap;html=1;" parent="WIyWlLk6GJQsqaUBKTNV-1" vertex="1">
          <mxGeometry x="354" y="190" width="120" height="60" as="geometry" />
        </mxCell>
        <mxCell id="rA98-xqqZp7VcC_hJ9K6-102" value="Fecha o Excel" style="rounded=0;whiteSpace=wrap;html=1;" parent="WIyWlLk6GJQsqaUBKTNV-1" vertex="1">
          <mxGeometry x="310" y="710" width="120" height="60" as="geometry" />
        </mxCell>
      </root>
    </mxGraphModel>
  </diagram>
</mxfile>
